solid Batterie
   facet normal 9.127921e-15 1.000000e+00 -3.462316e-13
      outer loop
         vertex 1.795709e+00 -7.759054e-02 2.671518e-01
         vertex 1.803332e+00 -7.759054e-02 1.033291e-01
         vertex 1.339203e+00 -7.759054e-02 2.459096e-01
      endloop
   endfacet
   facet normal 9.127921e-15 1.000000e+00 -3.462316e-13
      outer loop
         vertex 1.803332e+00 -7.759054e-02 1.033291e-01
         vertex 1.346826e+00 -7.759054e-02 8.208686e-02
         vertex 1.339203e+00 -7.759054e-02 2.459096e-01
      endloop
   endfacet
   facet normal -4.648181e-02 -3.245807e-16 9.989191e-01
      outer loop
         vertex 1.339203e+00 -1.924095e-01 2.459096e-01
         vertex 1.795709e+00 -7.759054e-02 2.671518e-01
         vertex 1.339203e+00 -7.759054e-02 2.459096e-01
      endloop
   endfacet
   facet normal -9.989191e-01 -6.975415e-15 -4.648181e-02
      outer loop
         vertex 1.346826e+00 -7.759054e-02 8.208686e-02
         vertex 1.339203e+00 -1.924095e-01 2.459096e-01
         vertex 1.339203e+00 -7.759054e-02 2.459096e-01
      endloop
   endfacet
   facet normal -4.648181e-02 -3.245807e-16 9.989191e-01
      outer loop
         vertex 1.339203e+00 -1.924095e-01 2.459096e-01
         vertex 1.795709e+00 -1.924095e-01 2.671518e-01
         vertex 1.795709e+00 -7.759054e-02 2.671518e-01
      endloop
   endfacet
   facet normal 9.989191e-01 6.975415e-15 4.648181e-02
      outer loop
         vertex 1.795709e+00 -1.924095e-01 2.671518e-01
         vertex 1.803332e+00 -1.924095e-01 1.033291e-01
         vertex 1.795709e+00 -7.759054e-02 2.671518e-01
      endloop
   endfacet
   facet normal 9.989191e-01 6.975415e-15 4.648181e-02
      outer loop
         vertex 1.803332e+00 -1.924095e-01 1.033291e-01
         vertex 1.803332e+00 -7.759054e-02 1.033291e-01
         vertex 1.795709e+00 -7.759054e-02 2.671518e-01
      endloop
   endfacet
   facet normal 4.648181e-02 3.245807e-16 -9.989191e-01
      outer loop
         vertex 1.803332e+00 -7.759054e-02 1.033291e-01
         vertex 1.803332e+00 -1.924095e-01 1.033291e-01
         vertex 1.346826e+00 -7.759054e-02 8.208686e-02
      endloop
   endfacet
   facet normal 4.648181e-02 3.245807e-16 -9.989191e-01
      outer loop
         vertex 1.803332e+00 -1.924095e-01 1.033291e-01
         vertex 1.346826e+00 -1.924095e-01 8.208686e-02
         vertex 1.346826e+00 -7.759054e-02 8.208686e-02
      endloop
   endfacet
   facet normal -9.989191e-01 -6.975415e-15 -4.648181e-02
      outer loop
         vertex 1.346826e+00 -1.924095e-01 8.208686e-02
         vertex 1.339203e+00 -1.924095e-01 2.459096e-01
         vertex 1.346826e+00 -7.759054e-02 8.208686e-02
      endloop
   endfacet
   facet normal 6.982963e-15 -1.000000e+00 0.000000e+00
      outer loop
         vertex 1.803332e+00 -1.924095e-01 1.033291e-01
         vertex 1.795709e+00 -1.924095e-01 2.671518e-01
         vertex 1.346826e+00 -1.924095e-01 8.208686e-02
      endloop
   endfacet
   facet normal 6.982963e-15 -1.000000e+00 0.000000e+00
      outer loop
         vertex 1.795709e+00 -1.924095e-01 2.671518e-01
         vertex 1.339203e+00 -1.924095e-01 2.459096e-01
         vertex 1.346826e+00 -1.924095e-01 8.208686e-02
      endloop
   endfacet
   facet normal 4.648181e-02 3.245807e-16 -9.989191e-01
      outer loop
         vertex 1.803332e+00 1.924094e-01 1.033291e-01
         vertex 1.803332e+00 7.759054e-02 1.033291e-01
         vertex 1.346826e+00 1.924094e-01 8.208686e-02
      endloop
   endfacet
   facet normal 4.648181e-02 3.245807e-16 -9.989191e-01
      outer loop
         vertex 1.803332e+00 7.759054e-02 1.033291e-01
         vertex 1.346826e+00 7.759054e-02 8.208686e-02
         vertex 1.346826e+00 1.924094e-01 8.208686e-02
      endloop
   endfacet
   facet normal -6.982963e-15 1.000000e+00 0.000000e+00
      outer loop
         vertex 1.339203e+00 1.924094e-01 2.459096e-01
         vertex 1.803332e+00 1.924094e-01 1.033291e-01
         vertex 1.346826e+00 1.924094e-01 8.208686e-02
      endloop
   endfacet
   facet normal -9.989191e-01 -6.975415e-15 -4.648181e-02
      outer loop
         vertex 1.339203e+00 7.759054e-02 2.459096e-01
         vertex 1.339203e+00 1.924094e-01 2.459096e-01
         vertex 1.346826e+00 1.924094e-01 8.208686e-02
      endloop
   endfacet
   facet normal -9.989191e-01 -6.975415e-15 -4.648181e-02
      outer loop
         vertex 1.346826e+00 7.759054e-02 8.208686e-02
         vertex 1.339203e+00 7.759054e-02 2.459096e-01
         vertex 1.346826e+00 1.924094e-01 8.208686e-02
      endloop
   endfacet
   facet normal -6.982963e-15 1.000000e+00 0.000000e+00
      outer loop
         vertex 1.339203e+00 1.924094e-01 2.459096e-01
         vertex 1.795709e+00 1.924094e-01 2.671518e-01
         vertex 1.803332e+00 1.924094e-01 1.033291e-01
      endloop
   endfacet
   facet normal 9.989191e-01 6.975415e-15 4.648181e-02
      outer loop
         vertex 1.795709e+00 1.924094e-01 2.671518e-01
         vertex 1.803332e+00 7.759054e-02 1.033291e-01
         vertex 1.803332e+00 1.924094e-01 1.033291e-01
      endloop
   endfacet
   facet normal -4.648181e-02 -3.245807e-16 9.989191e-01
      outer loop
         vertex 1.339203e+00 7.759054e-02 2.459096e-01
         vertex 1.795709e+00 1.924094e-01 2.671518e-01
         vertex 1.339203e+00 1.924094e-01 2.459096e-01
      endloop
   endfacet
   facet normal -4.648181e-02 -3.245807e-16 9.989191e-01
      outer loop
         vertex 1.339203e+00 7.759054e-02 2.459096e-01
         vertex 1.795709e+00 7.759054e-02 2.671518e-01
         vertex 1.795709e+00 1.924094e-01 2.671518e-01
      endloop
   endfacet
   facet normal 9.989191e-01 6.975415e-15 4.648181e-02
      outer loop
         vertex 1.795709e+00 7.759054e-02 2.671518e-01
         vertex 1.803332e+00 7.759054e-02 1.033291e-01
         vertex 1.795709e+00 1.924094e-01 2.671518e-01
      endloop
   endfacet
   facet normal 6.982963e-15 -1.000000e+00 0.000000e+00
      outer loop
         vertex 1.803332e+00 7.759054e-02 1.033291e-01
         vertex 1.795709e+00 7.759054e-02 2.671518e-01
         vertex 1.346826e+00 7.759054e-02 8.208686e-02
      endloop
   endfacet
   facet normal 6.982963e-15 -1.000000e+00 0.000000e+00
      outer loop
         vertex 1.795709e+00 7.759054e-02 2.671518e-01
         vertex 1.339203e+00 7.759054e-02 2.459096e-01
         vertex 1.346826e+00 7.759054e-02 8.208686e-02
      endloop
   endfacet
   facet normal -9.989191e-01 -6.975415e-15 -4.648181e-02
      outer loop
         vertex 1.475687e+00 9.999982e-04 8.808302e-02
         vertex 1.468064e+00 5.740945e-02 2.519058e-01
         vertex 1.475687e+00 5.740945e-02 8.808302e-02
      endloop
   endfacet
   facet normal -6.982963e-15 1.000000e+00 0.000000e+00
      outer loop
         vertex 1.795709e+00 5.740945e-02 2.671518e-01
         vertex 1.803332e+00 5.740945e-02 1.033291e-01
         vertex 1.475687e+00 5.740945e-02 8.808302e-02
      endloop
   endfacet
   facet normal -6.982963e-15 1.000000e+00 0.000000e+00
      outer loop
         vertex 1.468064e+00 5.740945e-02 2.519058e-01
         vertex 1.795709e+00 5.740945e-02 2.671518e-01
         vertex 1.475687e+00 5.740945e-02 8.808302e-02
      endloop
   endfacet
   facet normal 4.648181e-02 3.245807e-16 -9.989191e-01
      outer loop
         vertex 1.803332e+00 5.740945e-02 1.033291e-01
         vertex 1.475687e+00 9.999982e-04 8.808302e-02
         vertex 1.475687e+00 5.740945e-02 8.808302e-02
      endloop
   endfacet
   facet normal 9.989191e-01 6.975415e-15 4.648181e-02
      outer loop
         vertex 1.795709e+00 9.999982e-04 2.671518e-01
         vertex 1.803332e+00 9.999982e-04 1.033291e-01
         vertex 1.803332e+00 5.740945e-02 1.033291e-01
      endloop
   endfacet
   facet normal 9.989191e-01 6.975415e-15 4.648181e-02
      outer loop
         vertex 1.795709e+00 5.740945e-02 2.671518e-01
         vertex 1.795709e+00 9.999982e-04 2.671518e-01
         vertex 1.803332e+00 5.740945e-02 1.033291e-01
      endloop
   endfacet
   facet normal 4.648181e-02 3.245807e-16 -9.989191e-01
      outer loop
         vertex 1.803332e+00 9.999982e-04 1.033291e-01
         vertex 1.475687e+00 9.999982e-04 8.808302e-02
         vertex 1.803332e+00 5.740945e-02 1.033291e-01
      endloop
   endfacet
   facet normal -9.989191e-01 -6.975415e-15 -4.648181e-02
      outer loop
         vertex 1.475687e+00 9.999982e-04 8.808302e-02
         vertex 1.468064e+00 9.999982e-04 2.519058e-01
         vertex 1.468064e+00 5.740945e-02 2.519058e-01
      endloop
   endfacet
   facet normal -4.648181e-02 -3.245807e-16 9.989191e-01
      outer loop
         vertex 1.795709e+00 9.999982e-04 2.671518e-01
         vertex 1.795709e+00 5.740945e-02 2.671518e-01
         vertex 1.468064e+00 5.740945e-02 2.519058e-01
      endloop
   endfacet
   facet normal -4.648181e-02 -3.245807e-16 9.989191e-01
      outer loop
         vertex 1.468064e+00 9.999982e-04 2.519058e-01
         vertex 1.795709e+00 9.999982e-04 2.671518e-01
         vertex 1.468064e+00 5.740945e-02 2.519058e-01
      endloop
   endfacet
   facet normal 6.982963e-15 -1.000000e+00 0.000000e+00
      outer loop
         vertex 1.803332e+00 9.999982e-04 1.033291e-01
         vertex 1.468064e+00 9.999982e-04 2.519058e-01
         vertex 1.475687e+00 9.999982e-04 8.808302e-02
      endloop
   endfacet
   facet normal 6.982963e-15 -1.000000e+00 0.000000e+00
      outer loop
         vertex 1.795709e+00 9.999982e-04 2.671518e-01
         vertex 1.468064e+00 9.999982e-04 2.519058e-01
         vertex 1.803332e+00 9.999982e-04 1.033291e-01
      endloop
   endfacet
   facet normal 4.648181e-02 3.245807e-16 -9.989191e-01
      outer loop
         vertex 1.803332e+00 -5.740945e-02 1.033291e-01
         vertex 1.475687e+00 -5.740945e-02 8.808302e-02
         vertex 1.475687e+00 -9.999984e-04 8.808302e-02
      endloop
   endfacet
   facet normal 4.648181e-02 3.245807e-16 -9.989191e-01
      outer loop
         vertex 1.803332e+00 -9.999984e-04 1.033291e-01
         vertex 1.803332e+00 -5.740945e-02 1.033291e-01
         vertex 1.475687e+00 -9.999984e-04 8.808302e-02
      endloop
   endfacet
   facet normal -6.982963e-15 1.000000e+00 0.000000e+00
      outer loop
         vertex 1.468064e+00 -9.999984e-04 2.519058e-01
         vertex 1.803332e+00 -9.999984e-04 1.033291e-01
         vertex 1.475687e+00 -9.999984e-04 8.808302e-02
      endloop
   endfacet
   facet normal -9.989191e-01 -6.975415e-15 -4.648181e-02
      outer loop
         vertex 1.475687e+00 -5.740945e-02 8.808302e-02
         vertex 1.468064e+00 -9.999984e-04 2.519058e-01
         vertex 1.475687e+00 -9.999984e-04 8.808302e-02
      endloop
   endfacet
   facet normal -6.982963e-15 1.000000e+00 0.000000e+00
      outer loop
         vertex 1.468064e+00 -9.999984e-04 2.519058e-01
         vertex 1.795709e+00 -9.999984e-04 2.671518e-01
         vertex 1.803332e+00 -9.999984e-04 1.033291e-01
      endloop
   endfacet
   facet normal 9.989191e-01 6.975415e-15 4.648181e-02
      outer loop
         vertex 1.795709e+00 -9.999984e-04 2.671518e-01
         vertex 1.803332e+00 -5.740945e-02 1.033291e-01
         vertex 1.803332e+00 -9.999984e-04 1.033291e-01
      endloop
   endfacet
   facet normal -4.648181e-02 -3.245807e-16 9.989191e-01
      outer loop
         vertex 1.468064e+00 -5.740945e-02 2.519058e-01
         vertex 1.795709e+00 -9.999984e-04 2.671518e-01
         vertex 1.468064e+00 -9.999984e-04 2.519058e-01
      endloop
   endfacet
   facet normal -9.989191e-01 -6.975415e-15 -4.648181e-02
      outer loop
         vertex 1.475687e+00 -5.740945e-02 8.808302e-02
         vertex 1.468064e+00 -5.740945e-02 2.519058e-01
         vertex 1.468064e+00 -9.999984e-04 2.519058e-01
      endloop
   endfacet
   facet normal -4.648181e-02 -3.245807e-16 9.989191e-01
      outer loop
         vertex 1.468064e+00 -5.740945e-02 2.519058e-01
         vertex 1.795709e+00 -5.740945e-02 2.671518e-01
         vertex 1.795709e+00 -9.999984e-04 2.671518e-01
      endloop
   endfacet
   facet normal 9.989191e-01 6.975415e-15 4.648181e-02
      outer loop
         vertex 1.795709e+00 -5.740945e-02 2.671518e-01
         vertex 1.803332e+00 -5.740945e-02 1.033291e-01
         vertex 1.795709e+00 -9.999984e-04 2.671518e-01
      endloop
   endfacet
   facet normal 6.982963e-15 -1.000000e+00 0.000000e+00
      outer loop
         vertex 1.795709e+00 -5.740945e-02 2.671518e-01
         vertex 1.468064e+00 -5.740945e-02 2.519058e-01
         vertex 1.475687e+00 -5.740945e-02 8.808302e-02
      endloop
   endfacet
   facet normal 6.982963e-15 -1.000000e+00 0.000000e+00
      outer loop
         vertex 1.803332e+00 -5.740945e-02 1.033291e-01
         vertex 1.795709e+00 -5.740945e-02 2.671518e-01
         vertex 1.475687e+00 -5.740945e-02 8.808302e-02
      endloop
   endfacet
endsolid